<svg width="215" height="60" viewBox="0 0 215 60" fill="none" xmlns="http://www.w3.org/2000/svg">
<path d="M22.6676 25.1231L17.7388 38.753H19.9197L20.8466 36.0171H26.1434L27.0675 38.753H29.2484L24.3114 25.1231H22.6676ZM21.4409 34.2474L23.5372 28.2013L25.5764 34.2474H21.4409ZM34.1691 36.4091H36.4753V38.742H34.1691V36.4091ZM51.4144 25.1231H53.4535V38.742H51.4144V29.6314L48.3176 36.2573H46.8046L43.6314 29.6314V38.742H41.5923V25.1231H43.6314L47.5624 33.5959L51.4144 25.1231ZM99.3503 31.39H104.257V33.4744C104.257 35.233 103.936 36.3622 103.05 37.3202C102.097 38.2949 100.805 38.851 99.4511 38.8686C98.0973 38.8862 96.7911 38.3637 95.8145 37.4141C94.4924 36.0751 94.5115 34.5649 94.5115 31.9422C94.5115 29.3195 94.4924 27.801 95.8145 26.4731C96.2755 25.9979 96.8279 25.6236 97.4375 25.3733C98.0471 25.123 98.7009 25.0022 99.3585 25.0182C102.21 25.0182 103.873 26.9121 104.249 29.2449H102.191C101.85 27.7541 100.869 26.8734 99.3585 26.8734C98.9894 26.867 98.6229 26.9371 98.2816 27.0796C97.9402 27.222 97.6313 27.4337 97.3739 27.7016C96.7142 28.4277 96.556 29.1952 96.556 31.9284C96.556 34.6616 96.7087 35.4484 97.3739 36.1772C97.6308 36.4458 97.9397 36.658 98.2811 36.8004C98.6225 36.9429 98.9893 37.0127 99.3585 37.0055C99.7687 37.0142 100.176 36.9332 100.552 36.7679C100.929 36.6025 101.265 36.3568 101.539 36.0475C102.033 35.4732 102.221 34.7858 102.221 33.9051V33.1404H99.3503V31.39ZM113.703 25.1231L108.772 38.753H110.953L111.877 36.0171H117.185L118.111 38.753H120.292L115.347 25.1231H113.703ZM112.477 34.2474L114.573 28.2013L116.612 34.2474H112.477ZM134.877 29.1014C134.877 26.7878 133.241 25.1231 130.703 25.1231H125.488V38.742H127.53V33.0134H130.079L132.911 38.753H135.291L132.194 32.729C132.983 32.5294 133.681 32.061 134.169 31.4025C134.658 30.744 134.907 29.9354 134.877 29.1124V29.1014ZM127.53 31.2437V26.9894H130.551C131.914 26.9894 132.838 27.7927 132.838 29.1317C132.838 30.4707 131.911 31.2548 130.551 31.2548L127.53 31.2437ZM149.364 26.4151C148.513 25.5538 147.286 25.1341 145.888 25.1341H141.166V38.753H145.888C147.286 38.753 148.513 38.3334 149.364 37.472C150.819 35.9978 150.727 33.8168 150.727 31.8483C150.727 29.8799 150.819 27.8838 149.364 26.4151ZM147.965 35.9785C147.398 36.6107 146.643 36.8978 145.681 36.8978H143.205V26.9894H145.681C146.643 26.9894 147.398 27.2654 147.965 27.9059C148.666 28.6928 148.685 29.9738 148.685 31.8483C148.685 33.7229 148.666 35.1944 147.965 35.9785ZM157.048 25.1231H165.644V26.9783H159.101V30.9566H164.692V32.7925H159.09V36.8867H165.633V38.742H157.048V25.1231ZM179.828 25.1231H181.87V38.742H180L173.784 29.1593V38.742H171.745V25.1231H173.615L179.828 34.6864V25.1231ZM197.098 34.8714C197.098 37.3754 195.075 38.869 192.262 38.869C190.239 38.869 188.786 38.3914 187.502 37.069L188.865 35.7107C189.846 36.7073 190.923 37.0137 192.302 37.0137C194.058 37.0137 195.078 36.249 195.078 34.9266C195.094 34.6664 195.056 34.4056 194.964 34.1618C194.873 33.9179 194.732 33.6967 194.549 33.5131C194.211 33.1873 193.87 33.052 193.077 32.9388L191.49 32.7097C190.548 32.6142 189.658 32.2288 188.938 31.6054C188.279 30.9732 187.957 30.1118 187.957 29.002C187.957 26.6305 189.658 25.0044 192.452 25.0044C194.227 25.0044 195.476 25.4626 196.626 26.5532L195.315 27.8838C194.483 27.0805 193.521 26.832 192.387 26.832C190.8 26.832 189.933 27.7486 189.933 28.955C189.922 29.1903 189.962 29.4251 190.05 29.643C190.139 29.861 190.273 30.0568 190.443 30.2167C190.879 30.565 191.402 30.7838 191.953 30.8489L193.483 31.0781C194.731 31.2686 195.429 31.575 195.996 32.0913C196.732 32.729 197.098 33.7036 197.098 34.8714ZM77.5224 17.2576V18.9997L74.968 21.5948V14.3174L76.1729 13.0971C76.9014 12.3634 77.3787 11.4128 77.5352 10.3845C77.6917 9.35614 77.5191 8.30409 77.0426 7.38231L74.1502 1.74756L71.2441 7.38231C70.7675 8.30427 70.5951 9.35659 70.7521 10.385C70.9091 11.4135 71.3872 12.3639 72.1165 13.0971L73.3323 14.3174V21.5976L70.7643 18.9997V17.2576C70.7665 16.2174 70.4402 15.2038 69.833 14.3649C69.2258 13.5259 68.3695 12.9056 67.3894 12.5947L61.4083 10.6814L63.2975 16.7386C63.6047 17.7293 64.2161 18.5949 65.0429 19.2091C65.8696 19.8234 66.8684 20.1543 67.8937 20.1537H69.5812L73.3323 23.9387V30.3934H74.968V23.9359L78.6946 20.1537H80.382C81.4096 20.1565 82.4111 19.8263 83.2401 19.2113C84.069 18.5963 84.6819 17.7289 84.9892 16.7358L86.8784 10.6787L80.8973 12.5919C79.9167 12.903 79.0602 13.5237 78.4529 14.3632C77.8457 15.2027 77.5196 16.217 77.5224 17.2576V17.2576ZM69.1178 18.4972H67.8937C67.2139 18.4992 66.5513 18.2808 66.0029 17.8739C65.4545 17.4671 65.0491 16.8931 64.846 16.2361L63.9054 13.2186L66.8851 14.1711C67.5334 14.3766 68.0998 14.7868 68.5015 15.3416C68.9032 15.8965 69.1191 16.5669 69.1178 17.2549V18.4972ZM72.6971 8.14428L74.1502 5.33933L75.5895 8.14704C75.9046 8.75623 76.0187 9.45157 75.9152 10.1312C75.8117 10.8108 75.496 11.439 75.0143 11.9238L74.1502 12.8017L73.2833 11.9238C72.7998 11.4403 72.4821 10.8128 72.3766 10.1331C72.2711 9.45339 72.3835 8.75735 72.6971 8.14704V8.14428ZM84.3703 13.2186L83.4189 16.2389C83.2159 16.8936 82.8119 17.4656 82.2657 17.8718C81.7195 18.2779 81.0596 18.497 80.382 18.4972H79.158V17.2549C79.1566 16.5669 79.3726 15.8965 79.7743 15.3416C80.176 14.7868 80.7424 14.3766 81.3907 14.1711L84.3703 13.2186ZM82.4621 33.6125H65.8328V31.956H82.4621V33.6125ZM211.936 31.4038V32.9913H203.913V31.4038H211.936ZM3.05598 31.4038H11.0489V32.9913H3.04507L3.05598 31.4038ZM74.968 42.0301L82.4893 49.6498L81.3335 50.8204L74.968 44.374V48.2943L79.3761 52.7612L78.2202 53.9318L74.968 50.6354V55.7208C75.0168 56.003 74.9737 56.2937 74.8453 56.549L74.1502 57.9184L73.4523 56.5628C73.319 56.3031 73.2767 56.0053 73.3323 55.718V50.6354L70.061 53.9318L68.9051 52.7612L73.3323 48.2943V44.374L66.9532 50.8204L65.7974 49.6498L73.3214 42.0301V35.1833H74.9571L74.968 42.0301Z" fill="#459A6E"/>
</svg>
